HIERARCHY
ROOT Hips
{
	OFFSET 0.000000 0.000000 0.000000
	CHANNELS 6 Xposition Yposition Zposition Xrotation Yrotation Zrotation
	JOINT Chest
	{
		OFFSET 0.000000 0.009282 11.569106
		CHANNELS 3 Xrotation Yrotation Zrotation
		JOINT Chest2
		{
			OFFSET 0.000000 -0.016863 9.269641
			CHANNELS 3 Xrotation Yrotation Zrotation
			JOINT Chest3
			{
				OFFSET 0.000000 0.000000 8.374491
				CHANNELS 3 Xrotation Yrotation Zrotation
				JOINT Chest4
				{
					OFFSET 0.000000 0.000000 8.374493
					CHANNELS 3 Xrotation Yrotation Zrotation
					JOINT Neck
					{
						OFFSET 0.000000 -0.000001 12.152554
						CHANNELS 3 Xrotation Yrotation Zrotation
						JOINT Head
						{
							OFFSET 0.000000 -0.040100 7.802319
							CHANNELS 3 Xrotation Yrotation Zrotation
							End Site
							{
								OFFSET 0.000000 -0.020946 14.853096
							}
						}
					}
					JOINT RightCollar
					{
						OFFSET -2.894404 0.000000 6.791374
						CHANNELS 3 Xrotation Yrotation Zrotation
						JOINT RightShoulder
						{
							OFFSET -13.574684 0.000000 0.000000
							CHANNELS 3 Xrotation Yrotation Zrotation
							JOINT RightElbow
							{
								OFFSET -23.923903 0.000000 0.000000
								CHANNELS 3 Xrotation Yrotation Zrotation
								JOINT RightWrist
								{
									OFFSET -19.846718 -0.012765 0.000000
									CHANNELS 3 Xrotation Yrotation Zrotation
									End Site
									{
										OFFSET -14.973145 0.000000 0.000000
									}
								}
							}
						}
					}
					JOINT LeftCollar
					{
						OFFSET 2.894404 0.000000 6.791374
						CHANNELS 3 Xrotation Yrotation Zrotation
						JOINT LeftShoulder
						{
							OFFSET 13.574684 0.000000 0.000000
							CHANNELS 3 Xrotation Yrotation Zrotation
							JOINT LeftElbow
							{
								OFFSET 23.923903 0.000000 0.000000
								CHANNELS 3 Xrotation Yrotation Zrotation
								JOINT LeftWrist
								{
									OFFSET 19.846718 -0.012765 0.000000
									CHANNELS 3 Xrotation Yrotation Zrotation
									End Site
									{
										OFFSET 14.973145 0.000000 0.000000
									}
								}
							}
						}
					}
				}
			}
		}
	}
	JOINT RightHip
	{
		OFFSET -9.469263 -0.004642 0.045487
		CHANNELS 3 Xrotation Yrotation Zrotation
		JOINT RightKnee
		{
			OFFSET 0.000000 -0.002666 -40.478676
			CHANNELS 3 Xrotation Yrotation Zrotation
			JOINT RightAnkle
			{
				OFFSET 0.000000 -0.049110 -35.224068
				CHANNELS 3 Xrotation Yrotation Zrotation
				JOINT RightToe
				{
					OFFSET 0.000000 -12.539530 -6.151390
					CHANNELS 3 Xrotation Yrotation Zrotation
					End Site
					{
						OFFSET 0.000000 -5.044995 -1.291870
					}
				}
			}
		}
	}
	JOINT LeftHip
	{
		OFFSET 9.469263 -0.004642 0.045487
		CHANNELS 3 Xrotation Yrotation Zrotation
		JOINT LeftKnee
		{
			OFFSET 0.000000 -0.002666 -40.478676
			CHANNELS 3 Xrotation Yrotation Zrotation
			JOINT LeftAnkle
			{
				OFFSET 0.000000 -0.049110 -35.224068
				CHANNELS 3 Xrotation Yrotation Zrotation
				JOINT LeftToe
				{
					OFFSET 0.000000 -12.539530 -6.151390
					CHANNELS 3 Xrotation Yrotation Zrotation
					End Site
					{
						OFFSET 0.000000 -5.044995 -1.291870
					}
				}
			}
		}
	}
}
MOTION
Frames: 12
Frame Time: 0.016667
-14.056353 -5.566686 83.017296 1.633682 5.287285 -106.267491 4.752197 0.551164 0.062225 2.109408 0.250150 0.042766 2.109408 0.250150 0.042766 1.582072 0.187468 0.032932 15.882444 -0.843659 -2.853475 -6.671647 -0.500172 -5.501473 -28.825775 0.177680 -1.192346 -31.189181 -20.411112 36.711338 4.149785 6.356387 22.600509 20.807804 -29.577502 -17.566012 -23.676086 -1.629842 -2.075044 -34.582310 20.446535 -36.493714 -6.109671 -1.956259 -18.127281 35.571851 33.442000 16.961207 9.681941 0.671646 -3.825749 3.054612 -2.344831 -7.057660 -6.466865 1.293335 0.589484 0.047651 -0.003629 -0.007480 10.179681 0.467939 0.923263 1.682773 -0.665233 0.834256 -5.473528 1.869206 0.254951 0.043613 0.009666 0.004891 
-14.021001 -5.575957 83.017876 1.635657 5.318845 -106.242356 4.745525 0.545173 0.067159 2.106333 0.247501 0.044750 2.106333 0.247501 0.044749 1.579766 0.185474 0.034417 15.898080 -0.845026 -2.858620 -6.642546 -0.501438 -5.511253 -28.794090 0.189491 -1.189966 -31.105190 -20.363111 36.705474 4.189017 6.324613 22.624568 20.750991 -29.671667 -17.586981 -23.612930 -1.615778 -2.082783 -34.592606 20.454752 -36.478312 -5.972936 -1.942164 -18.239800 35.507876 33.502891 17.050181 9.691981 0.674573 -3.857833 3.049454 -2.346045 -7.046883 -6.446274 1.300507 0.586200 0.049554 -0.002809 -0.007000 10.183946 0.473926 0.918112 1.676196 -0.673137 0.821232 -5.453886 1.866359 0.249148 0.046388 0.012385 0.004444 
-13.984675 -5.587363 83.018143 1.637740 5.348102 -106.213266 4.736810 0.541082 0.068914 2.102736 0.245647 0.045133 2.102736 0.245647 0.045125 1.577069 0.184082 0.034695 15.912488 -0.846875 -2.861658 -6.615796 -0.504296 -5.517379 -28.750889 0.193168 -1.188263 -30.997103 -20.282544 36.714077 4.157229 6.281657 22.656004 20.702020 -29.773023 -17.599357 -23.574157 -1.607615 -2.094947 -34.523280 20.406966 -36.494975 -5.845818 -1.968010 -18.286677 35.550575 33.516315 17.039476 9.694442 0.678710 -3.872728 3.053492 -2.351367 -7.052320 -6.430239 1.309275 0.580332 0.050923 -0.002840 -0.007372 10.184001 0.479688 0.908007 1.670508 -0.680789 0.806738 -5.437303 1.859742 0.245110 0.051704 0.016163 0.004634 
-13.945476 -5.600240 83.017776 1.639821 5.368375 -106.185051 4.726785 0.534916 0.068209 2.098831 0.242887 0.044230 2.098830 0.242887 0.044235 1.574139 0.182017 0.034010 15.923145 -0.846230 -2.862140 -6.595984 -0.503386 -5.517990 -28.722759 0.198067 -1.182978 -30.907736 -20.230696 36.736883 4.082622 6.220339 22.673434 20.664235 -29.843999 -17.607541 -23.546905 -1.612504 -2.101215 -34.424632 20.350900 -36.527360 -5.752833 -2.019743 -18.294838 35.618460 33.532356 17.020550 9.686691 0.682165 -3.868913 3.055000 -2.359287 -7.069784 -6.411761 1.317912 0.570513 0.052773 -0.001835 -0.007279 10.174719 0.484473 0.911815 1.662480 -0.689389 0.783021 -5.419687 1.851025 0.241323 0.057435 0.020495 0.004665 
-13.905253 -5.612015 83.016884 1.642772 5.390386 -106.158878 4.717433 0.521599 0.062532 2.094578 0.237071 0.040937 2.094578 0.237071 0.040942 1.570947 0.177665 0.031520 15.930868 -0.833905 -2.860698 -6.581161 -0.481799 -5.510847 -28.694106 0.209889 -1.165228 -30.868179 -20.231160 36.755051 4.024272 6.159605 22.708323 20.662331 -29.884171 -17.599044 -23.473772 -1.623988 -2.078374 -34.393336 20.345028 -36.562614 -5.726302 -2.061858 -18.306801 35.627465 33.565612 17.062180 9.681727 0.679389 -3.855857 3.052287 -2.358687 -7.097927 -6.391850 1.323916 0.560279 0.055397 -0.001225 -0.006471 10.168806 0.487160 0.918832 1.651752 -0.696881 0.754305 -5.403375 1.843008 0.236079 0.064300 0.023879 0.004558 
-13.864924 -5.621401 83.016258 1.645037 5.414665 -106.132704 4.711529 0.509623 0.059729 2.091730 0.232311 0.039335 2.091730 0.232311 0.039338 1.568810 0.174101 0.030301 15.931085 -0.821709 -2.862884 -6.580191 -0.458819 -5.510414 -28.657613 0.219780 -1.153895 -30.883510 -20.260708 36.762858 4.042503 6.138242 22.757412 20.657837 -29.889994 -17.626043 -23.398309 -1.617674 -2.082894 -34.451904 20.364064 -36.559858 -5.692206 -2.055712 -18.340460 35.614987 33.578439 17.108601 9.682329 0.671849 -3.843081 3.042270 -2.348770 -7.130139 -6.368343 1.327547 0.554841 0.057626 -0.001799 -0.004622 10.165310 0.489224 0.909973 1.639891 -0.702681 0.736864 -5.385682 1.834402 0.237706 0.069403 0.027337 0.003920 
-13.823903 -5.631397 83.015961 1.647528 5.436133 -106.114748 4.705841 0.496989 0.058080 2.089248 0.226940 0.038553 2.089249 0.226940 0.038552 1.566949 0.170075 0.029690 15.924130 -0.810319 -2.865025 -6.592564 -0.437028 -5.510219 -28.628099 0.229838 -1.134154 -30.866380 -20.262248 36.763333 4.155651 6.195344 22.817015 20.652884 -29.930968 -17.650182 -23.372431 -1.584650 -2.094533 -34.504989 20.367819 -36.543343 -5.593054 -2.031142 -18.366724 35.642461 33.567740 17.115419 9.679036 0.665466 -3.826131 3.031678 -2.340461 -7.160758 -6.342727 1.332215 0.549062 0.059132 -0.002289 -0.003899 10.157339 0.491560 0.899395 1.633715 -0.707656 0.727823 -5.371683 1.824941 0.240782 0.073242 0.030474 0.003354 
-13.782981 -5.642094 83.015503 1.648602 5.454039 -106.102406 4.708622 0.493298 0.067093 2.090590 0.225351 0.042647 2.090590 0.225351 0.042652 1.567956 0.168870 0.032759 15.907299 -0.811694 -2.869912 -6.623754 -0.437074 -5.519674 -28.606721 0.246886 -1.137753 -30.821413 -20.208114 36.773161 4.275909 6.255889 22.858919 20.647235 -30.026744 -17.633967 -23.372892 -1.597681 -2.092398 -34.487961 20.352695 -36.568283 -5.476461 -2.021317 -18.370031 35.668026 33.600405 17.110047 9.670380 0.667333 -3.831392 3.024775 -2.342865 -7.169509 -6.320228 1.340961 0.549717 0.061636 -0.002316 -0.003967 10.146956 0.496096 0.897964 1.625711 -0.712880 0.721384 -5.358190 1.813541 0.233864 0.076855 0.034497 0.002920 
-13.742892 -5.653628 83.014458 1.652052 5.467129 -106.090685 4.717401 0.484196 0.067204 2.094591 0.221093 0.042493 2.094592 0.221093 0.042495 1.570957 0.165677 0.032630 15.884319 -0.807125 -2.869777 -6.666206 -0.427862 -5.517877 -28.619838 0.262013 -1.130342 -30.732884 -20.125634 36.812800 4.286780 6.242543 22.880051 20.626598 -30.101846 -17.608924 -23.378539 -1.626950 -2.056430 -34.386256 20.292043 -36.623987 -5.446323 -2.062250 -18.362760 35.673156 33.635260 17.086843 9.659495 0.672115 -3.852955 3.016507 -2.355642 -7.162901 -6.298086 1.352311 0.558651 0.063728 -0.000648 -0.004970 10.136498 0.495888 0.901001 1.611390 -0.713222 0.714712 -5.346013 1.796820 0.225638 0.082523 0.039253 0.003409 
-13.704863 -5.664912 83.012856 1.655324 5.479959 -106.075344 4.725486 0.475237 0.064383 2.097997 0.217073 0.040902 2.097998 0.217073 0.040906 1.573511 0.162666 0.031424 15.866989 -0.797901 -2.868006 -6.698039 -0.411003 -5.511371 -28.632768 0.258009 -1.119607 -30.652035 -20.055119 36.868453 4.214484 6.175889 22.893906 20.577055 -30.134214 -17.645087 -23.294917 -1.657156 -2.051020 -34.363665 20.249913 -36.660859 -5.555705 -2.110951 -18.371938 35.698588 33.633265 17.105218 9.650901 0.672219 -3.878816 3.006666 -2.359546 -7.152529 -6.276868 1.357313 0.560914 0.065712 0.002142 -0.005482 10.125475 0.495916 0.906381 1.599663 -0.714450 0.703285 -5.335650 1.778719 0.217502 0.086645 0.044194 0.003760 
-13.668656 -5.674584 83.011444 1.658978 5.488571 -106.063433 4.734697 0.468109 0.058625 2.101852 0.213578 0.038575 2.101852 0.213578 0.038578 1.576401 0.160053 0.029666 15.852905 -0.789505 -2.862030 -6.723998 -0.397311 -5.497496 -28.640465 0.244407 -1.107393 -30.635506 -20.040552 36.914304 4.204387 6.138801 22.901515 20.549662 -30.164164 -17.674428 -23.232518 -1.675286 -2.032202 -34.450586 20.283736 -36.678468 -5.619334 -2.109988 -18.369988 35.699821 33.584426 17.074267 9.640308 0.666818 -3.885096 2.994159 -2.355073 -7.154867 -6.253437 1.355678 0.560816 0.065817 0.006165 -0.005195 10.113140 0.497456 0.913588 1.586153 -0.723075 0.698238 -5.323982 1.770158 0.206958 0.088534 0.044902 0.003918 
-13.634621 -5.681485 83.010384 1.659225 5.500190 -106.051794 4.737304 0.463969 0.055046 2.102943 0.211963 0.036875 2.102944 0.211963 0.036880 1.577220 0.158848 0.028390 15.850338 -0.789670 -2.857832 -6.728858 -0.399027 -5.489925 -28.634928 0.254450 -1.101014 -30.629683 -20.057441 36.927083 4.269929 6.162382 22.902656 20.524196 -30.200716 -17.700097 -23.256128 -1.639087 -2.061637 -34.550232 20.308995 -36.667652 -5.547370 -2.077697 -18.344835 35.655104 33.608045 17.124521 9.632240 0.658749 -3.875112 2.982773 -2.341911 -7.170890 -6.232100 1.350540 0.552270 0.065747 0.009838 -0.004312 10.107716 0.499615 0.924932 1.565744 -0.729136 0.689968 -5.305886 1.765664 0.193545 0.086675 0.043006 0.004076 
